<?xml version="1.0" encoding="UTF-8"?>
<svg id="Layer_1" xmlns="http://www.w3.org/2000/svg" version="1.1" xmlns:xlink="http://www.w3.org/1999/xlink" viewBox="0 0 1564 335">
  <!-- Generator: Adobe Illustrator 30.0.0, SVG Export Plug-In . SVG Version: 2.1.1 Build 123)  -->
  <defs>
    <style>
      .st0 {
        fill: none;
      }

      .st1 {
        clip-path: url(#clippath);
      }
    </style>
    <clipPath id="clippath">
      <rect class="st0" x="-243.01" y="-118.58" width="769.54" height="577.15"/>
    </clipPath>
  </defs>
  <g class="st1">
    <path d="M183.28,20.74l119.13-.16c6.43.68,12.19,6.15,13.09,12.56.89,6.38-5.23,35.56-6.65,43.25-2.32,12.51-8.63,19.24-21.16,19.24l-114.84-.05c-7.06.61-13.81,4.72-17.5,10.72-4.18,6.79-6.93,27.83-8.25,36.64-1.72,11.5-4.26,22.74,9.89,26.9l115.3.13c10.02.19,17.41,6.62,17,17.03-.27,6.74-6.17,39.69-8.69,45.19-2.74,5.98-8.45,10.24-14.54,12.39-40.02,2.46-80.58.43-120.79,1.05-36.69,6.94-9.08,65.02-43.73,74.26l-72.62.18c-8.46-.72-14.13-7.93-13.7-16.28.44-8.45,5.19-34.89,7.81-42.89,2.92-8.95,12-15.91,21.28-15.91,35.95,0,34.98.05,68.31.05,8.27-.76,16.42-7.92,18.92-15.71,2.74-8.5,6.94-32.72,7.58-41.8.58-8.32-4.19-15.21-12.48-16.86l-69.51-.03c-11.69-1.3-15.98-8.29-15.04-19.57.65-7.82,6.22-36.89,8.72-43.22,3.57-9.04,10.11-11.56,16.6-12.26l68.93.03c40.31-3.19,11.33-66.16,46.94-74.9"/>
  </g>
  <g>
    <path d="M390.69,92.94h116.33l-7.83,36.33h-71.46l-7.6,35.14h67.43l-7.83,36.33h-67.19l-13.06,61.73h-44.63l35.85-169.51v-.02Z"/>
    <path d="M528.62,92.94h42.73l-35.85,169.51h-42.73l35.85-169.51Z"/>
    <path d="M683.78,239.31c-6.73,8.47-15,15.08-24.81,19.82-9.82,4.75-20.66,7.12-32.53,7.12-14.4,0-26.12-3.37-35.14-10.09-9.02-6.73-15.16-15.79-18.4-27.18-3.25-11.4-3.29-24.06-.12-37.99,2.69-11.55,7.44-21.56,14.25-30.03,6.8-8.46,15.11-15.08,24.93-19.82,9.81-4.75,20.57-7.12,32.29-7.12,14.56,0,26.35,3.36,35.38,10.09,9.02,6.73,15.11,15.79,18.28,27.18,3.16,11.4,3.09,24.14-.24,38.22-2.53,11.4-7.16,21.33-13.89,29.79h0ZM657.18,187.56c-.24-5.62-1.62-10.25-4.16-13.89-2.53-3.64-6.49-5.46-11.87-5.46-6.17,0-11.6,2.42-16.26,7.24-4.67,4.83-7.88,11.28-9.62,19.35-1.27,5.86-1.82,11.63-1.66,17.33.16,5.7,1.5,10.41,4.04,14.13,2.53,3.72,6.49,5.58,11.87,5.58,6.17,0,11.55-2.41,16.14-7.24s7.83-11.28,9.73-19.35c1.42-6.17,2.02-12.07,1.78-17.69h0Z"/>
    <path d="M765.09,212.6l34.19-73.84h33.71l4.04,74.55,32.29-75.5h41.31l-60.78,124.64h-40.12l-3.09-74.07-35.14,74.07h-38.94l-9.26-124.64h41.79v74.79Z"/>
    <path d="M964.76,151.59c10.13-11.71,21.68-17.57,34.66-17.57,14.56,0,24.22,6.49,28.96,19.47,6.17-6.49,12.9-11.35,20.18-14.6,7.28-3.24,14.56-4.87,21.84-4.87,13.77,0,23.39,4.67,28.85,14.01,5.46,9.34,6.61,21.53,3.44,36.56l-16.14,77.87h-42.73l15.67-75.74c1.11-5.06,1.15-9.26.12-12.58s-3.84-4.99-8.43-4.99-8.94,1.58-13.06,4.75c-3.96,3.01-6.57,7.36-7.83,13.06l-15.91,75.5h-42.74l15.67-75.5c1.11-5.06,1.19-9.3.24-12.7s-3.72-5.1-8.31-5.1c-4.27,0-8.55,1.66-12.82,4.99-2.06,1.58-3.76,3.48-5.1,5.7-1.35,2.22-2.42,4.99-3.21,8.31l-15.67,74.31h-42.73l26.35-124.64h41.55l-2.85,13.77h0Z"/>
    <path d="M1200.27,182.45c1.11-5.06.91-9.57-.59-13.53-1.51-3.96-5.74-5.94-12.7-5.94-5.22,0-9.26.99-12.11,2.97s-5.07,5.26-6.65,9.85l-37.75-3.09c2.85-12.66,9.57-22.28,20.18-28.85,10.6-6.57,24.22-9.85,40.83-9.85,14.56,0,25.68,2.65,33.36,7.95,7.68,5.3,12.54,12.31,14.6,21.01,2.05,8.71,1.98,18.36-.24,28.96l-15.43,70.51h-38.94l2.85-13.29c-5.22,5.38-10.8,9.46-16.74,12.23s-12.78,4.15-20.54,4.15c-10.13,0-18.13-2.18-23.98-6.53-5.86-4.35-9.77-9.89-11.75-16.62s-2.18-13.73-.59-21.01c2.53-11.71,9.62-20.42,21.25-26.12s27.02-8.94,46.18-9.73l18.28-.71.47-2.37h0ZM1193.15,215.69l1.42-6.89-12.82.48c-9.18.47-16.07,1.82-20.65,4.04-4.59,2.22-7.28,5.38-8.07,9.5-.79,4.12-.24,7.52,1.66,10.21s5.46,4.04,10.68,4.04c6.65,0,12.58-1.94,17.81-5.82,5.22-3.88,8.55-9.06,9.97-15.55h0Z"/>
    <path d="M1339.63,259.85c-3.96,1.42-8.78,2.61-14.48,3.56s-11.32,1.42-16.86,1.42c-15.99,0-27.3-4.11-33.95-12.35-6.65-8.23-8.31-20.02-4.99-35.38l9.73-45.82h-20.18l7.12-33.48h20.18l6.88-32.76h42.73l-6.88,32.76h27.54l-7.12,33.48h-27.54l-9.02,42.73c-1.11,5.07-.91,9.02.59,11.87s4.71,4.27,9.62,4.27c2.06,0,4-.16,5.82-.48,1.82-.31,3.92-.79,6.29-1.42l4.51,31.58v.02Z"/>
    <path d="M1377.15,137.82h42.73l-26.59,124.64h-42.73l26.59-124.64ZM1386.17,92h42.97l-6.65,30.86h-42.73l6.41-30.86Z"/>
    <path d="M1552.12,179.84l-39.89,5.22c-.32-5.06-1.54-9.14-3.68-12.23-2.14-3.09-5.74-4.63-10.8-4.63-5.86,0-10.96,2.42-15.31,7.24-4.35,4.83-7.4,11.28-9.14,19.35-.79,3.64-1.31,7.6-1.54,11.87s.04,8.31.83,12.11c.79,3.8,2.41,6.93,4.87,9.38,2.45,2.46,5.97,3.68,10.57,3.68,5.06,0,9.1-1.38,12.11-4.15,3-2.77,5.38-7.08,7.12-12.94h40.36c-3.01,15.99-10.01,28.57-21.01,37.75s-25.21,13.77-42.62,13.77c-12.03,0-21.96-2.18-29.8-6.53s-13.77-10.13-17.81-17.33-6.45-15.19-7.24-23.98-.24-17.69,1.66-26.71c2.53-11.71,7.08-21.88,13.65-30.51,6.57-8.62,14.64-15.31,24.22-20.06,9.57-4.75,20.14-7.12,31.69-7.12,15.99,0,28.45,4.24,37.39,12.7,8.94,8.47,13.73,19.51,14.36,33.12h.01Z"/>
  </g>
</svg>