<?xml version="1.0" encoding="UTF-8"?>
<svg id="Layer_1" xmlns="http://www.w3.org/2000/svg" version="1.1" viewBox="0 0 1200 1200">
  <!-- Generator: Adobe Illustrator 30.0.0, SVG Export Plug-In . SVG Version: 2.1.1 Build 123)  -->
  <defs>
    <style>
      .st0 {
        fill: #00ef8b;
      }
    </style>
  </defs>
  <path class="st0" d="M714.15,122.98l371.53-.49c20.07,2.11,38.03,19.17,40.81,39.18,2.76,19.89-16.31,110.89-20.75,134.9-7.22,39.01-26.91,60-66,60l-358.14-.14c-22.01,1.9-43.06,14.73-54.57,33.43-13.03,21.17-21.61,86.79-25.73,114.27-5.37,35.85-13.28,70.92,30.85,83.89l359.6.4c31.24.58,54.31,20.64,53.02,53.12-.84,21.01-19.25,123.79-27.1,140.94-8.54,18.66-26.34,31.94-45.36,38.64-124.82,7.68-251.3,1.33-376.72,3.28-114.43,21.63-28.31,202.77-136.4,231.6l-226.5.56c-26.4-2.25-44.08-24.74-42.72-50.78,1.38-26.35,16.2-108.82,24.34-133.76,9.12-27.93,37.41-49.62,66.38-49.62,112.1,0,109.09.16,213.05.16,25.8-2.37,51.21-24.72,59.02-48.98,8.53-26.5,21.65-102.06,23.63-130.36,1.82-25.95-13.06-47.44-38.91-52.57l-216.8-.1c-36.47-4.06-49.84-25.84-46.9-61.04,2.04-24.38,19.39-115.04,27.2-134.81,11.14-28.2,31.55-36.05,51.76-38.24l214.98.08c125.73-9.96,35.33-206.33,146.41-233.59l.02.03Z"/>
</svg>